<mxfile host="app.diagrams.net" modified="2023-02-28T16:06:15.881Z" agent="5.0 (Windows)" etag="zth4wW8zZ78vOhH6HVet" version="20.8.23" type="github">
  <diagram name="PÃ¡gina-1" id="talk2UAZNnC-9V4pHTTT">
    <mxGraphModel dx="4685" dy="1955" grid="1" gridSize="10" guides="1" tooltips="1" connect="1" arrows="1" fold="1" page="1" pageScale="1" pageWidth="1100" pageHeight="850" math="0" shadow="0">
      <root>
        <mxCell id="0" />
        <mxCell id="1" parent="0" />
        <mxCell id="CKS4pDuvZnmvhNHZPCm1-1" value="Investigador" style="whiteSpace=wrap;html=1;align=center;" parent="1" vertex="1">
          <mxGeometry x="-451" y="160" width="90" height="30" as="geometry" />
        </mxCell>
        <mxCell id="CKS4pDuvZnmvhNHZPCm1-2" value="Id_Invest" style="ellipse;whiteSpace=wrap;html=1;align=center;" parent="1" vertex="1">
          <mxGeometry x="-511" y="40" width="70" height="40" as="geometry" />
        </mxCell>
        <mxCell id="CKS4pDuvZnmvhNHZPCm1-3" value="Index_H" style="ellipse;whiteSpace=wrap;html=1;align=center;" parent="1" vertex="1">
          <mxGeometry x="-431" y="40" width="60" height="40" as="geometry" />
        </mxCell>
        <mxCell id="CKS4pDuvZnmvhNHZPCm1-4" value="Apelledo_Pat" style="ellipse;whiteSpace=wrap;html=1;align=center;" parent="1" vertex="1">
          <mxGeometry x="-361" y="40" width="90" height="40" as="geometry" />
        </mxCell>
        <mxCell id="CKS4pDuvZnmvhNHZPCm1-5" value="Nivel_SNI" style="ellipse;whiteSpace=wrap;html=1;align=center;" parent="1" vertex="1">
          <mxGeometry x="-661" y="40" width="70" height="40" as="geometry" />
        </mxCell>
        <mxCell id="CKS4pDuvZnmvhNHZPCm1-6" value="Nombres" style="ellipse;whiteSpace=wrap;html=1;align=center;" parent="1" vertex="1">
          <mxGeometry x="-581" y="40" width="60" height="40" as="geometry" />
        </mxCell>
        <mxCell id="CKS4pDuvZnmvhNHZPCm1-7" value="Apellido_Mat" style="ellipse;whiteSpace=wrap;html=1;align=center;" parent="1" vertex="1">
          <mxGeometry x="-261" y="40" width="90" height="40" as="geometry" />
        </mxCell>
        <mxCell id="CKS4pDuvZnmvhNHZPCm1-8" value="" style="endArrow=none;html=1;rounded=0;exitX=0;exitY=0.25;exitDx=0;exitDy=0;entryX=0.5;entryY=1;entryDx=0;entryDy=0;" parent="1" source="CKS4pDuvZnmvhNHZPCm1-1" target="CKS4pDuvZnmvhNHZPCm1-5" edge="1">
          <mxGeometry relative="1" as="geometry">
            <mxPoint x="-481" y="130" as="sourcePoint" />
            <mxPoint x="-321" y="130" as="targetPoint" />
          </mxGeometry>
        </mxCell>
        <mxCell id="CKS4pDuvZnmvhNHZPCm1-9" value="" style="endArrow=none;html=1;rounded=0;exitX=0.5;exitY=0;exitDx=0;exitDy=0;entryX=0.5;entryY=1;entryDx=0;entryDy=0;" parent="1" source="CKS4pDuvZnmvhNHZPCm1-1" target="CKS4pDuvZnmvhNHZPCm1-3" edge="1">
          <mxGeometry relative="1" as="geometry">
            <mxPoint x="-421" y="210" as="sourcePoint" />
            <mxPoint x="-701" y="140" as="targetPoint" />
          </mxGeometry>
        </mxCell>
        <mxCell id="CKS4pDuvZnmvhNHZPCm1-10" value="" style="endArrow=none;html=1;rounded=0;exitX=0.75;exitY=0;exitDx=0;exitDy=0;entryX=0.5;entryY=1;entryDx=0;entryDy=0;" parent="1" source="CKS4pDuvZnmvhNHZPCm1-1" target="CKS4pDuvZnmvhNHZPCm1-4" edge="1">
          <mxGeometry relative="1" as="geometry">
            <mxPoint x="-421" y="240" as="sourcePoint" />
            <mxPoint x="-701" y="170" as="targetPoint" />
          </mxGeometry>
        </mxCell>
        <mxCell id="CKS4pDuvZnmvhNHZPCm1-11" value="" style="endArrow=none;html=1;rounded=0;exitX=0.5;exitY=1;exitDx=0;exitDy=0;entryX=1;entryY=0.5;entryDx=0;entryDy=0;" parent="1" source="CKS4pDuvZnmvhNHZPCm1-7" target="CKS4pDuvZnmvhNHZPCm1-1" edge="1">
          <mxGeometry relative="1" as="geometry">
            <mxPoint x="-431" y="290" as="sourcePoint" />
            <mxPoint x="-711" y="220" as="targetPoint" />
          </mxGeometry>
        </mxCell>
        <mxCell id="CKS4pDuvZnmvhNHZPCm1-12" value="" style="endArrow=none;html=1;rounded=0;exitX=0.36;exitY=-0.025;exitDx=0;exitDy=0;entryX=0.5;entryY=1;entryDx=0;entryDy=0;exitPerimeter=0;" parent="1" source="CKS4pDuvZnmvhNHZPCm1-1" target="CKS4pDuvZnmvhNHZPCm1-2" edge="1">
          <mxGeometry relative="1" as="geometry">
            <mxPoint x="-361" y="190" as="sourcePoint" />
            <mxPoint x="-451" y="90" as="targetPoint" />
          </mxGeometry>
        </mxCell>
        <mxCell id="CKS4pDuvZnmvhNHZPCm1-13" value="" style="endArrow=none;html=1;rounded=0;entryX=0.5;entryY=1;entryDx=0;entryDy=0;exitX=0.14;exitY=-0.025;exitDx=0;exitDy=0;exitPerimeter=0;" parent="1" source="CKS4pDuvZnmvhNHZPCm1-1" target="CKS4pDuvZnmvhNHZPCm1-6" edge="1">
          <mxGeometry relative="1" as="geometry">
            <mxPoint x="-411" y="150" as="sourcePoint" />
            <mxPoint x="-631" y="130" as="targetPoint" />
          </mxGeometry>
        </mxCell>
        <mxCell id="CKS4pDuvZnmvhNHZPCm1-14" value="Pertecene" style="shape=rhombus;perimeter=rhombusPerimeter;whiteSpace=wrap;html=1;align=center;" parent="1" vertex="1">
          <mxGeometry x="-581" y="150" width="80" height="50" as="geometry" />
        </mxCell>
        <mxCell id="CKS4pDuvZnmvhNHZPCm1-15" value="Posgrado" style="rounded=1;arcSize=10;whiteSpace=wrap;html=1;align=center;" parent="1" vertex="1">
          <mxGeometry x="-690" y="160" width="80" height="30" as="geometry" />
        </mxCell>
        <mxCell id="CKS4pDuvZnmvhNHZPCm1-16" value="" style="endArrow=none;html=1;rounded=0;entryX=0;entryY=0.5;entryDx=0;entryDy=0;" parent="1" source="CKS4pDuvZnmvhNHZPCm1-14" target="CKS4pDuvZnmvhNHZPCm1-1" edge="1">
          <mxGeometry relative="1" as="geometry">
            <mxPoint x="-511" y="240" as="sourcePoint" />
            <mxPoint x="-321" y="130" as="targetPoint" />
          </mxGeometry>
        </mxCell>
        <mxCell id="CKS4pDuvZnmvhNHZPCm1-17" value="Id_Posg" style="ellipse;whiteSpace=wrap;html=1;align=center;" parent="1" vertex="1">
          <mxGeometry x="-685" y="110" width="70" height="30" as="geometry" />
        </mxCell>
        <mxCell id="CKS4pDuvZnmvhNHZPCm1-18" value="Nom_Posg" style="ellipse;whiteSpace=wrap;html=1;align=center;" parent="1" vertex="1">
          <mxGeometry x="-690" y="209" width="80" height="30" as="geometry" />
        </mxCell>
        <mxCell id="CKS4pDuvZnmvhNHZPCm1-19" value="" style="endArrow=none;html=1;rounded=0;entryX=0;entryY=0.5;entryDx=0;entryDy=0;exitX=1;exitY=0.5;exitDx=0;exitDy=0;" parent="1" source="CKS4pDuvZnmvhNHZPCm1-15" target="CKS4pDuvZnmvhNHZPCm1-14" edge="1">
          <mxGeometry width="50" height="50" relative="1" as="geometry">
            <mxPoint x="-581" y="380" as="sourcePoint" />
            <mxPoint x="-531" y="330" as="targetPoint" />
          </mxGeometry>
        </mxCell>
        <mxCell id="CKS4pDuvZnmvhNHZPCm1-23" value="Proyecto" style="rounded=1;arcSize=10;whiteSpace=wrap;html=1;align=center;" parent="1" vertex="1">
          <mxGeometry x="-456" y="290" width="100" height="40" as="geometry" />
        </mxCell>
        <mxCell id="CKS4pDuvZnmvhNHZPCm1-24" value="Tiene" style="shape=rhombus;perimeter=rhombusPerimeter;whiteSpace=wrap;html=1;align=center;" parent="1" vertex="1">
          <mxGeometry x="-441" y="209" width="70" height="44" as="geometry" />
        </mxCell>
        <mxCell id="CKS4pDuvZnmvhNHZPCm1-25" value="" style="endArrow=none;html=1;rounded=0;exitX=0.5;exitY=0;exitDx=0;exitDy=0;entryX=0.5;entryY=1;entryDx=0;entryDy=0;" parent="1" source="CKS4pDuvZnmvhNHZPCm1-24" target="CKS4pDuvZnmvhNHZPCm1-1" edge="1">
          <mxGeometry width="50" height="50" relative="1" as="geometry">
            <mxPoint x="-421" y="120" as="sourcePoint" />
            <mxPoint x="-371" y="70" as="targetPoint" />
          </mxGeometry>
        </mxCell>
        <mxCell id="CKS4pDuvZnmvhNHZPCm1-26" value="" style="endArrow=none;html=1;rounded=0;exitX=0.5;exitY=0;exitDx=0;exitDy=0;entryX=0.5;entryY=1;entryDx=0;entryDy=0;" parent="1" source="CKS4pDuvZnmvhNHZPCm1-23" target="CKS4pDuvZnmvhNHZPCm1-24" edge="1">
          <mxGeometry width="50" height="50" relative="1" as="geometry">
            <mxPoint x="-421" y="120" as="sourcePoint" />
            <mxPoint x="-371" y="70" as="targetPoint" />
          </mxGeometry>
        </mxCell>
        <mxCell id="CKS4pDuvZnmvhNHZPCm1-27" value="Convocatoria" style="rounded;whiteSpace=wrap;html=1;align=center;" parent="1" vertex="1">
          <mxGeometry x="-781" y="426" width="90" height="40" as="geometry" />
        </mxCell>
        <mxCell id="CKS4pDuvZnmvhNHZPCm1-30" value="" style="endArrow=none;html=1;rounded=0;entryX=0.5;entryY=1;entryDx=0;entryDy=0;exitX=0.5;exitY=0;exitDx=0;exitDy=0;" parent="1" source="CKS4pDuvZnmvhNHZPCm1-15" target="CKS4pDuvZnmvhNHZPCm1-17" edge="1">
          <mxGeometry width="50" height="50" relative="1" as="geometry">
            <mxPoint x="-600" y="185" as="sourcePoint" />
            <mxPoint x="-505" y="155" as="targetPoint" />
          </mxGeometry>
        </mxCell>
        <mxCell id="CKS4pDuvZnmvhNHZPCm1-31" value="" style="endArrow=none;html=1;rounded=0;entryX=0.5;entryY=1;entryDx=0;entryDy=0;exitX=0.5;exitY=0;exitDx=0;exitDy=0;" parent="1" source="CKS4pDuvZnmvhNHZPCm1-18" target="CKS4pDuvZnmvhNHZPCm1-15" edge="1">
          <mxGeometry width="50" height="50" relative="1" as="geometry">
            <mxPoint x="-640" y="170" as="sourcePoint" />
            <mxPoint x="-640" y="150" as="targetPoint" />
          </mxGeometry>
        </mxCell>
        <mxCell id="CKS4pDuvZnmvhNHZPCm1-33" value="Carta_Postulacion" style="rounded;whiteSpace=wrap;html=1;align=center;" parent="1" vertex="1">
          <mxGeometry x="-677" y="421" width="111" height="50" as="geometry" />
        </mxCell>
        <mxCell id="CKS4pDuvZnmvhNHZPCm1-34" value="Sol_Camb_Mod" style="rounded;whiteSpace=wrap;html=1;align=center;" parent="1" vertex="1">
          <mxGeometry x="-290" y="420" width="104" height="52" as="geometry" />
        </mxCell>
        <mxCell id="CKS4pDuvZnmvhNHZPCm1-35" value="Carta-Conclu" style="rounded;whiteSpace=wrap;html=1;align=center;" parent="1" vertex="1">
          <mxGeometry x="-180" y="422.5" width="90" height="40" as="geometry" />
        </mxCell>
        <mxCell id="CKS4pDuvZnmvhNHZPCm1-36" value="Informes" style="rounded;whiteSpace=wrap;html=1;align=center;" parent="1" vertex="1">
          <mxGeometry x="-882" y="426" width="90" height="40" as="geometry" />
        </mxCell>
        <mxCell id="CKS4pDuvZnmvhNHZPCm1-37" value="Cta_Banc" style="rounded;whiteSpace=wrap;html=1;align=center;" parent="1" vertex="1">
          <mxGeometry x="-384" y="427.5" width="84" height="37" as="geometry" />
        </mxCell>
        <mxCell id="CKS4pDuvZnmvhNHZPCm1-38" value="Convenio" style="rounded;whiteSpace=wrap;html=1;align=center;" parent="1" vertex="1">
          <mxGeometry x="-553" y="426" width="71" height="40" as="geometry" />
        </mxCell>
        <mxCell id="CKS4pDuvZnmvhNHZPCm1-40" value="" style="endArrow=none;html=1;rounded=0;exitX=0.5;exitY=0;exitDx=0;exitDy=0;entryX=0;entryY=0.5;entryDx=0;entryDy=0;startArrow=none;" parent="1" source="iRURqrjIJQSKfv4a0Viq-4" target="CKS4pDuvZnmvhNHZPCm1-23" edge="1">
          <mxGeometry relative="1" as="geometry">
            <mxPoint x="-430" y="340" as="sourcePoint" />
            <mxPoint x="-460" y="310" as="targetPoint" />
          </mxGeometry>
        </mxCell>
        <mxCell id="CKS4pDuvZnmvhNHZPCm1-41" value="" style="endArrow=none;html=1;rounded=0;exitX=0.5;exitY=0;exitDx=0;exitDy=0;entryX=0;entryY=0.75;entryDx=0;entryDy=0;startArrow=none;" parent="1" source="iRURqrjIJQSKfv4a0Viq-6" target="CKS4pDuvZnmvhNHZPCm1-23" edge="1">
          <mxGeometry relative="1" as="geometry">
            <mxPoint x="-740" y="387" as="sourcePoint" />
            <mxPoint x="-450" y="320" as="targetPoint" />
          </mxGeometry>
        </mxCell>
        <mxCell id="CKS4pDuvZnmvhNHZPCm1-44" value="" style="endArrow=none;html=1;rounded=0;exitX=0.5;exitY=0;exitDx=0;exitDy=0;startArrow=none;" parent="1" source="iRURqrjIJQSKfv4a0Viq-8" edge="1">
          <mxGeometry relative="1" as="geometry">
            <mxPoint x="-730" y="397" as="sourcePoint" />
            <mxPoint x="-440" y="330" as="targetPoint" />
          </mxGeometry>
        </mxCell>
        <mxCell id="CKS4pDuvZnmvhNHZPCm1-45" value="" style="endArrow=none;html=1;rounded=0;exitX=0.5;exitY=0;exitDx=0;exitDy=0;entryX=0.33;entryY=1.025;entryDx=0;entryDy=0;startArrow=none;entryPerimeter=0;" parent="1" source="iRURqrjIJQSKfv4a0Viq-10" target="CKS4pDuvZnmvhNHZPCm1-23" edge="1">
          <mxGeometry relative="1" as="geometry">
            <mxPoint x="-524" y="382" as="sourcePoint" />
            <mxPoint x="-430" y="340" as="targetPoint" />
          </mxGeometry>
        </mxCell>
        <mxCell id="CKS4pDuvZnmvhNHZPCm1-46" value="" style="endArrow=none;html=1;rounded=0;exitX=0.5;exitY=0;exitDx=0;exitDy=0;entryX=0.75;entryY=1;entryDx=0;entryDy=0;startArrow=none;" parent="1" source="iRURqrjIJQSKfv4a0Viq-14" target="CKS4pDuvZnmvhNHZPCm1-23" edge="1">
          <mxGeometry relative="1" as="geometry">
            <mxPoint x="-420" y="387" as="sourcePoint" />
            <mxPoint x="-421" y="340" as="targetPoint" />
          </mxGeometry>
        </mxCell>
        <mxCell id="CKS4pDuvZnmvhNHZPCm1-47" value="" style="endArrow=none;html=1;rounded=0;exitX=0.5;exitY=0;exitDx=0;exitDy=0;entryX=1;entryY=0.75;entryDx=0;entryDy=0;startArrow=none;" parent="1" source="iRURqrjIJQSKfv4a0Viq-12" target="CKS4pDuvZnmvhNHZPCm1-23" edge="1">
          <mxGeometry relative="1" as="geometry">
            <mxPoint x="-329" y="387" as="sourcePoint" />
            <mxPoint x="-371" y="340" as="targetPoint" />
          </mxGeometry>
        </mxCell>
        <mxCell id="CKS4pDuvZnmvhNHZPCm1-48" value="" style="endArrow=none;html=1;rounded=0;exitX=0.5;exitY=0;exitDx=0;exitDy=0;entryX=1;entryY=0.5;entryDx=0;entryDy=0;startArrow=none;" parent="1" source="iRURqrjIJQSKfv4a0Viq-16" target="CKS4pDuvZnmvhNHZPCm1-23" edge="1">
          <mxGeometry relative="1" as="geometry">
            <mxPoint x="-209" y="382" as="sourcePoint" />
            <mxPoint x="-346" y="330" as="targetPoint" />
          </mxGeometry>
        </mxCell>
        <mxCell id="CKS4pDuvZnmvhNHZPCm1-50" value="Con_Banc" style="rounded;whiteSpace=wrap;html=1;align=center;" parent="1" vertex="1">
          <mxGeometry x="-1077" y="428.5" width="80" height="43.5" as="geometry" />
        </mxCell>
        <mxCell id="CKS4pDuvZnmvhNHZPCm1-51" value="Notificaciones" style="rounded;whiteSpace=wrap;html=1;align=center;" parent="1" vertex="1">
          <mxGeometry x="-987" y="427.5" width="90" height="40" as="geometry" />
        </mxCell>
        <mxCell id="CKS4pDuvZnmvhNHZPCm1-52" value="Edo_Cta" style="rounded;whiteSpace=wrap;html=1;align=center;" parent="1" vertex="1">
          <mxGeometry x="100" y="419" width="70" height="45.5" as="geometry" />
        </mxCell>
        <mxCell id="CKS4pDuvZnmvhNHZPCm1-53" value="Sop-Doc" style="rounded;whiteSpace=wrap;html=1;align=center;" parent="1" vertex="1">
          <mxGeometry x="20" y="422.5" width="70" height="37" as="geometry" />
        </mxCell>
        <mxCell id="CKS4pDuvZnmvhNHZPCm1-54" value="Devoluciones" style="rounded;whiteSpace=wrap;html=1;align=center;" parent="1" vertex="1">
          <mxGeometry x="-80" y="417.5" width="90" height="47" as="geometry" />
        </mxCell>
        <mxCell id="CKS4pDuvZnmvhNHZPCm1-55" value="" style="endArrow=none;html=1;rounded=0;exitX=0.5;exitY=0;exitDx=0;exitDy=0;entryX=1;entryY=0.5;entryDx=0;entryDy=0;startArrow=none;" parent="1" source="iRURqrjIJQSKfv4a0Viq-22" target="CKS4pDuvZnmvhNHZPCm1-23" edge="1">
          <mxGeometry width="50" height="50" relative="1" as="geometry">
            <mxPoint x="-380" y="420" as="sourcePoint" />
            <mxPoint x="-330" y="370" as="targetPoint" />
          </mxGeometry>
        </mxCell>
        <mxCell id="CKS4pDuvZnmvhNHZPCm1-57" value="" style="endArrow=none;html=1;rounded=0;exitX=1;exitY=0.5;exitDx=0;exitDy=0;entryX=0.5;entryY=0;entryDx=0;entryDy=0;startArrow=none;" parent="1" source="iRURqrjIJQSKfv4a0Viq-20" target="CKS4pDuvZnmvhNHZPCm1-53" edge="1">
          <mxGeometry relative="1" as="geometry">
            <mxPoint x="-422" y="460" as="sourcePoint" />
            <mxPoint x="-262" y="460" as="targetPoint" />
          </mxGeometry>
        </mxCell>
        <mxCell id="CKS4pDuvZnmvhNHZPCm1-59" value="" style="endArrow=none;html=1;rounded=0;exitX=0.5;exitY=0;exitDx=0;exitDy=0;entryX=0;entryY=0.5;entryDx=0;entryDy=0;startArrow=none;" parent="1" source="iRURqrjIJQSKfv4a0Viq-1" target="CKS4pDuvZnmvhNHZPCm1-23" edge="1">
          <mxGeometry relative="1" as="geometry">
            <mxPoint x="-740" y="387" as="sourcePoint" />
            <mxPoint x="-446" y="320" as="targetPoint" />
          </mxGeometry>
        </mxCell>
        <mxCell id="CKS4pDuvZnmvhNHZPCm1-60" value="" style="endArrow=none;html=1;rounded=0;exitX=0.5;exitY=0;exitDx=0;exitDy=0;entryX=0;entryY=0.25;entryDx=0;entryDy=0;startArrow=none;" parent="1" source="CKS4pDuvZnmvhNHZPCm1-78" target="CKS4pDuvZnmvhNHZPCm1-23" edge="1">
          <mxGeometry relative="1" as="geometry">
            <mxPoint x="-730" y="397" as="sourcePoint" />
            <mxPoint x="-436" y="330" as="targetPoint" />
          </mxGeometry>
        </mxCell>
        <mxCell id="CKS4pDuvZnmvhNHZPCm1-61" value="" style="endArrow=none;html=1;rounded=0;exitX=1;exitY=0.25;exitDx=0;exitDy=0;entryX=0.386;entryY=-0.044;entryDx=0;entryDy=0;entryPerimeter=0;startArrow=none;" parent="1" source="iRURqrjIJQSKfv4a0Viq-18" target="CKS4pDuvZnmvhNHZPCm1-52" edge="1">
          <mxGeometry relative="1" as="geometry">
            <mxPoint x="-346" y="320" as="sourcePoint" />
            <mxPoint x="65" y="384" as="targetPoint" />
          </mxGeometry>
        </mxCell>
        <mxCell id="CKS4pDuvZnmvhNHZPCm1-62" value="Nom-Conv" style="ellipse;whiteSpace=wrap;html=1;align=center;" parent="1" vertex="1">
          <mxGeometry x="-752" y="693" width="102" height="40" as="geometry" />
        </mxCell>
        <mxCell id="CKS4pDuvZnmvhNHZPCm1-63" value="PDF_nom" style="ellipse;whiteSpace=wrap;html=1;align=center;" parent="1" vertex="1">
          <mxGeometry x="-757.5" y="743" width="71" height="40" as="geometry" />
        </mxCell>
        <mxCell id="CKS4pDuvZnmvhNHZPCm1-64" value="Term_Ref_PDF" style="ellipse;whiteSpace=wrap;html=1;align=center;" parent="1" vertex="1">
          <mxGeometry x="-773.62" y="793" width="101.25" height="50" as="geometry" />
        </mxCell>
        <mxCell id="CKS4pDuvZnmvhNHZPCm1-65" value="Lineam_PDF" style="ellipse;whiteSpace=wrap;html=1;align=center;" parent="1" vertex="1">
          <mxGeometry x="-772.63" y="853" width="101.25" height="50" as="geometry" />
        </mxCell>
        <mxCell id="CKS4pDuvZnmvhNHZPCm1-66" value="Man_Proc_PDF" style="ellipse;whiteSpace=wrap;html=1;align=center;" parent="1" vertex="1">
          <mxGeometry x="-771.62" y="913" width="101.25" height="50" as="geometry" />
        </mxCell>
        <mxCell id="CKS4pDuvZnmvhNHZPCm1-67" value="Anexos_PDF" style="ellipse;whiteSpace=wrap;html=1;align=center;" parent="1" vertex="1">
          <mxGeometry x="-772.63" y="973" width="101.25" height="50" as="geometry" />
        </mxCell>
        <mxCell id="CKS4pDuvZnmvhNHZPCm1-68" value="Resultados_PDF" style="ellipse;whiteSpace=wrap;html=1;align=center;" parent="1" vertex="1">
          <mxGeometry x="-775.63" y="1033" width="111.63" height="50" as="geometry" />
        </mxCell>
        <mxCell id="CKS4pDuvZnmvhNHZPCm1-71" value="" style="endArrow=none;html=1;rounded=0;entryX=0;entryY=0.5;entryDx=0;entryDy=0;" parent="1" edge="1">
          <mxGeometry relative="1" as="geometry">
            <mxPoint x="-803" y="713" as="sourcePoint" />
            <mxPoint x="-753" y="713" as="targetPoint" />
          </mxGeometry>
        </mxCell>
        <mxCell id="CKS4pDuvZnmvhNHZPCm1-72" value="" style="endArrow=none;html=1;rounded=0;entryX=0;entryY=0.5;entryDx=0;entryDy=0;" parent="1" target="CKS4pDuvZnmvhNHZPCm1-63" edge="1">
          <mxGeometry relative="1" as="geometry">
            <mxPoint x="-803" y="763" as="sourcePoint" />
            <mxPoint x="-743" y="723" as="targetPoint" />
          </mxGeometry>
        </mxCell>
        <mxCell id="CKS4pDuvZnmvhNHZPCm1-73" value="" style="endArrow=none;html=1;rounded=0;entryX=0;entryY=0.5;entryDx=0;entryDy=0;" parent="1" target="CKS4pDuvZnmvhNHZPCm1-64" edge="1">
          <mxGeometry relative="1" as="geometry">
            <mxPoint x="-803" y="818" as="sourcePoint" />
            <mxPoint x="-733" y="733" as="targetPoint" />
          </mxGeometry>
        </mxCell>
        <mxCell id="CKS4pDuvZnmvhNHZPCm1-74" value="" style="endArrow=none;html=1;rounded=0;entryX=0;entryY=0.5;entryDx=0;entryDy=0;" parent="1" target="CKS4pDuvZnmvhNHZPCm1-65" edge="1">
          <mxGeometry relative="1" as="geometry">
            <mxPoint x="-803" y="878" as="sourcePoint" />
            <mxPoint x="-723" y="743" as="targetPoint" />
          </mxGeometry>
        </mxCell>
        <mxCell id="CKS4pDuvZnmvhNHZPCm1-75" value="" style="endArrow=none;html=1;rounded=0;entryX=0;entryY=0.5;entryDx=0;entryDy=0;" parent="1" target="CKS4pDuvZnmvhNHZPCm1-66" edge="1">
          <mxGeometry relative="1" as="geometry">
            <mxPoint x="-803" y="938" as="sourcePoint" />
            <mxPoint x="-773" y="943" as="targetPoint" />
          </mxGeometry>
        </mxCell>
        <mxCell id="CKS4pDuvZnmvhNHZPCm1-77" value="" style="endArrow=none;html=1;rounded=0;entryX=0;entryY=0.5;entryDx=0;entryDy=0;" parent="1" target="CKS4pDuvZnmvhNHZPCm1-67" edge="1">
          <mxGeometry relative="1" as="geometry">
            <mxPoint x="-803" y="998" as="sourcePoint" />
            <mxPoint x="-693" y="773" as="targetPoint" />
          </mxGeometry>
        </mxCell>
        <mxCell id="CKS4pDuvZnmvhNHZPCm1-79" value="" style="endArrow=none;html=1;rounded=0;exitX=0.5;exitY=0;exitDx=0;exitDy=0;entryX=0;entryY=0.25;entryDx=0;entryDy=0;" parent="1" source="CKS4pDuvZnmvhNHZPCm1-50" target="CKS4pDuvZnmvhNHZPCm1-78" edge="1">
          <mxGeometry relative="1" as="geometry">
            <mxPoint x="-950" y="429" as="sourcePoint" />
            <mxPoint x="-456" y="300" as="targetPoint" />
          </mxGeometry>
        </mxCell>
        <mxCell id="CKS4pDuvZnmvhNHZPCm1-78" value="Tiene" style="shape=rhombus;perimeter=rhombusPerimeter;whiteSpace=wrap;html=1;align=center;" parent="1" vertex="1">
          <mxGeometry x="-987" y="330" width="50" height="34" as="geometry" />
        </mxCell>
        <mxCell id="iRURqrjIJQSKfv4a0Viq-2" value="" style="endArrow=none;html=1;rounded=0;exitX=0.5;exitY=0;exitDx=0;exitDy=0;entryX=0;entryY=0.5;entryDx=0;entryDy=0;" edge="1" parent="1" source="CKS4pDuvZnmvhNHZPCm1-51" target="iRURqrjIJQSKfv4a0Viq-1">
          <mxGeometry relative="1" as="geometry">
            <mxPoint x="-855" y="428" as="sourcePoint" />
            <mxPoint x="-456" y="310" as="targetPoint" />
          </mxGeometry>
        </mxCell>
        <mxCell id="iRURqrjIJQSKfv4a0Viq-1" value="Tiene" style="shape=rhombus;perimeter=rhombusPerimeter;whiteSpace=wrap;html=1;align=center;" vertex="1" parent="1">
          <mxGeometry x="-917" y="340" width="60" height="34" as="geometry" />
        </mxCell>
        <mxCell id="iRURqrjIJQSKfv4a0Viq-5" value="" style="endArrow=none;html=1;rounded=0;exitX=0.5;exitY=0;exitDx=0;exitDy=0;entryX=0;entryY=0.5;entryDx=0;entryDy=0;" edge="1" parent="1" source="CKS4pDuvZnmvhNHZPCm1-36" target="iRURqrjIJQSKfv4a0Viq-4">
          <mxGeometry relative="1" as="geometry">
            <mxPoint x="-750" y="426" as="sourcePoint" />
            <mxPoint x="-456" y="310" as="targetPoint" />
          </mxGeometry>
        </mxCell>
        <mxCell id="iRURqrjIJQSKfv4a0Viq-4" value="Tiene" style="shape=rhombus;perimeter=rhombusPerimeter;whiteSpace=wrap;html=1;align=center;" vertex="1" parent="1">
          <mxGeometry x="-832" y="350" width="60" height="34" as="geometry" />
        </mxCell>
        <mxCell id="iRURqrjIJQSKfv4a0Viq-7" value="" style="endArrow=none;html=1;rounded=0;exitX=0.5;exitY=0;exitDx=0;exitDy=0;entryX=0;entryY=0.75;entryDx=0;entryDy=0;" edge="1" parent="1" source="CKS4pDuvZnmvhNHZPCm1-27" target="iRURqrjIJQSKfv4a0Viq-6">
          <mxGeometry relative="1" as="geometry">
            <mxPoint x="-649" y="426" as="sourcePoint" />
            <mxPoint x="-456" y="320" as="targetPoint" />
          </mxGeometry>
        </mxCell>
        <mxCell id="iRURqrjIJQSKfv4a0Viq-6" value="Tiene" style="shape=rhombus;perimeter=rhombusPerimeter;whiteSpace=wrap;html=1;align=center;" vertex="1" parent="1">
          <mxGeometry x="-748" y="350" width="60" height="34" as="geometry" />
        </mxCell>
        <mxCell id="iRURqrjIJQSKfv4a0Viq-9" value="" style="endArrow=none;html=1;rounded=0;exitX=0.5;exitY=0;exitDx=0;exitDy=0;" edge="1" parent="1" source="CKS4pDuvZnmvhNHZPCm1-33" target="iRURqrjIJQSKfv4a0Viq-8">
          <mxGeometry relative="1" as="geometry">
            <mxPoint x="-534" y="421" as="sourcePoint" />
            <mxPoint x="-440" y="330" as="targetPoint" />
          </mxGeometry>
        </mxCell>
        <mxCell id="iRURqrjIJQSKfv4a0Viq-8" value="Tiene" style="shape=rhombus;perimeter=rhombusPerimeter;whiteSpace=wrap;html=1;align=center;" vertex="1" parent="1">
          <mxGeometry x="-651.5" y="350" width="64.5" height="36.55" as="geometry" />
        </mxCell>
        <mxCell id="iRURqrjIJQSKfv4a0Viq-11" value="" style="endArrow=none;html=1;rounded=0;exitX=0.5;exitY=0;exitDx=0;exitDy=0;entryX=0.5;entryY=1;entryDx=0;entryDy=0;" edge="1" parent="1" source="CKS4pDuvZnmvhNHZPCm1-38" target="iRURqrjIJQSKfv4a0Viq-10">
          <mxGeometry relative="1" as="geometry">
            <mxPoint x="-430" y="426" as="sourcePoint" />
            <mxPoint x="-406" y="330" as="targetPoint" />
          </mxGeometry>
        </mxCell>
        <mxCell id="iRURqrjIJQSKfv4a0Viq-10" value="Tiene" style="shape=rhombus;perimeter=rhombusPerimeter;whiteSpace=wrap;html=1;align=center;" vertex="1" parent="1">
          <mxGeometry x="-553" y="364" width="60" height="34" as="geometry" />
        </mxCell>
        <mxCell id="iRURqrjIJQSKfv4a0Viq-13" value="" style="endArrow=none;html=1;rounded=0;exitX=0.5;exitY=0;exitDx=0;exitDy=0;entryX=1;entryY=0.75;entryDx=0;entryDy=0;" edge="1" parent="1" source="CKS4pDuvZnmvhNHZPCm1-34" target="iRURqrjIJQSKfv4a0Viq-12">
          <mxGeometry relative="1" as="geometry">
            <mxPoint x="-238" y="420" as="sourcePoint" />
            <mxPoint x="-356" y="320" as="targetPoint" />
          </mxGeometry>
        </mxCell>
        <mxCell id="iRURqrjIJQSKfv4a0Viq-12" value="Tiene" style="shape=rhombus;perimeter=rhombusPerimeter;whiteSpace=wrap;html=1;align=center;" vertex="1" parent="1">
          <mxGeometry x="-321" y="364" width="60" height="34" as="geometry" />
        </mxCell>
        <mxCell id="iRURqrjIJQSKfv4a0Viq-15" value="" style="endArrow=none;html=1;rounded=0;exitX=0.5;exitY=0;exitDx=0;exitDy=0;entryX=0.75;entryY=1;entryDx=0;entryDy=0;" edge="1" parent="1" source="CKS4pDuvZnmvhNHZPCm1-37" target="iRURqrjIJQSKfv4a0Viq-14">
          <mxGeometry relative="1" as="geometry">
            <mxPoint x="-342" y="428" as="sourcePoint" />
            <mxPoint x="-381" y="330" as="targetPoint" />
          </mxGeometry>
        </mxCell>
        <mxCell id="iRURqrjIJQSKfv4a0Viq-14" value="Tiene" style="shape=rhombus;perimeter=rhombusPerimeter;whiteSpace=wrap;html=1;align=center;" vertex="1" parent="1">
          <mxGeometry x="-395" y="364" width="60" height="34" as="geometry" />
        </mxCell>
        <mxCell id="iRURqrjIJQSKfv4a0Viq-17" value="" style="endArrow=none;html=1;rounded=0;exitX=0.5;exitY=0;exitDx=0;exitDy=0;entryX=1;entryY=0.5;entryDx=0;entryDy=0;" edge="1" parent="1" source="CKS4pDuvZnmvhNHZPCm1-35" target="iRURqrjIJQSKfv4a0Viq-16">
          <mxGeometry relative="1" as="geometry">
            <mxPoint x="-135" y="423" as="sourcePoint" />
            <mxPoint x="-356" y="310" as="targetPoint" />
          </mxGeometry>
        </mxCell>
        <mxCell id="iRURqrjIJQSKfv4a0Viq-16" value="Tiene" style="shape=rhombus;perimeter=rhombusPerimeter;whiteSpace=wrap;html=1;align=center;" vertex="1" parent="1">
          <mxGeometry x="-230" y="364" width="60" height="34" as="geometry" />
        </mxCell>
        <mxCell id="iRURqrjIJQSKfv4a0Viq-19" value="" style="endArrow=none;html=1;rounded=0;exitX=1;exitY=0.25;exitDx=0;exitDy=0;entryX=0.386;entryY=-0.044;entryDx=0;entryDy=0;entryPerimeter=0;" edge="1" parent="1" source="CKS4pDuvZnmvhNHZPCm1-23" target="iRURqrjIJQSKfv4a0Viq-18">
          <mxGeometry relative="1" as="geometry">
            <mxPoint x="-356" y="300" as="sourcePoint" />
            <mxPoint x="127" y="417" as="targetPoint" />
          </mxGeometry>
        </mxCell>
        <mxCell id="iRURqrjIJQSKfv4a0Viq-18" value="Tiene" style="shape=rhombus;perimeter=rhombusPerimeter;whiteSpace=wrap;html=1;align=center;" vertex="1" parent="1">
          <mxGeometry x="30" y="340" width="60" height="34" as="geometry" />
        </mxCell>
        <mxCell id="iRURqrjIJQSKfv4a0Viq-21" value="" style="endArrow=none;html=1;rounded=0;exitX=1;exitY=0.5;exitDx=0;exitDy=0;entryX=0.5;entryY=0;entryDx=0;entryDy=0;" edge="1" parent="1" source="CKS4pDuvZnmvhNHZPCm1-23" target="iRURqrjIJQSKfv4a0Viq-20">
          <mxGeometry relative="1" as="geometry">
            <mxPoint x="-356" y="310" as="sourcePoint" />
            <mxPoint x="55" y="423" as="targetPoint" />
          </mxGeometry>
        </mxCell>
        <mxCell id="iRURqrjIJQSKfv4a0Viq-20" value="Tiene" style="shape=rhombus;perimeter=rhombusPerimeter;whiteSpace=wrap;html=1;align=center;" vertex="1" parent="1">
          <mxGeometry x="-40" y="350" width="60" height="34" as="geometry" />
        </mxCell>
        <mxCell id="iRURqrjIJQSKfv4a0Viq-23" value="" style="endArrow=none;html=1;rounded=0;exitX=0.5;exitY=0;exitDx=0;exitDy=0;entryX=1;entryY=0.5;entryDx=0;entryDy=0;" edge="1" parent="1" source="CKS4pDuvZnmvhNHZPCm1-54" target="iRURqrjIJQSKfv4a0Viq-22">
          <mxGeometry width="50" height="50" relative="1" as="geometry">
            <mxPoint x="-35" y="418" as="sourcePoint" />
            <mxPoint x="-356" y="310" as="targetPoint" />
          </mxGeometry>
        </mxCell>
        <mxCell id="iRURqrjIJQSKfv4a0Viq-22" value="Tiene" style="shape=rhombus;perimeter=rhombusPerimeter;whiteSpace=wrap;html=1;align=center;" vertex="1" parent="1">
          <mxGeometry x="-130" y="364" width="60" height="34" as="geometry" />
        </mxCell>
        <mxCell id="iRURqrjIJQSKfv4a0Viq-24" value="ID_Proyecto" style="rounded;whiteSpace=wrap;html=1;align=center;" vertex="1" parent="1">
          <mxGeometry x="-466" y="427.5" width="71" height="40" as="geometry" />
        </mxCell>
        <mxCell id="iRURqrjIJQSKfv4a0Viq-25" value="Tiene" style="shape=rhombus;perimeter=rhombusPerimeter;whiteSpace=wrap;html=1;align=center;" vertex="1" parent="1">
          <mxGeometry x="-460.5" y="364" width="60" height="34" as="geometry" />
        </mxCell>
        <mxCell id="iRURqrjIJQSKfv4a0Viq-26" value="" style="endArrow=none;html=1;rounded=0;exitX=0.5;exitY=0;exitDx=0;exitDy=0;entryX=0.5;entryY=1;entryDx=0;entryDy=0;" edge="1" parent="1" source="iRURqrjIJQSKfv4a0Viq-24" target="iRURqrjIJQSKfv4a0Viq-25">
          <mxGeometry width="50" height="50" relative="1" as="geometry">
            <mxPoint x="-580" y="450" as="sourcePoint" />
            <mxPoint x="-530" y="400" as="targetPoint" />
          </mxGeometry>
        </mxCell>
        <mxCell id="iRURqrjIJQSKfv4a0Viq-30" value="" style="endArrow=none;html=1;rounded=0;exitX=0.5;exitY=0;exitDx=0;exitDy=0;" edge="1" parent="1" source="iRURqrjIJQSKfv4a0Viq-25" target="CKS4pDuvZnmvhNHZPCm1-23">
          <mxGeometry width="50" height="50" relative="1" as="geometry">
            <mxPoint x="-580" y="450" as="sourcePoint" />
            <mxPoint x="-380" y="330" as="targetPoint" />
          </mxGeometry>
        </mxCell>
        <mxCell id="iRURqrjIJQSKfv4a0Viq-31" value="ID_Proyecto" style="ellipse;whiteSpace=wrap;html=1;align=center;dashed=1;" vertex="1" parent="1">
          <mxGeometry x="-766" y="579" width="86" height="50" as="geometry" />
        </mxCell>
        <mxCell id="iRURqrjIJQSKfv4a0Viq-32" value="Id_Invest" style="ellipse;whiteSpace=wrap;html=1;align=center;dashed=1;" vertex="1" parent="1">
          <mxGeometry x="-757" y="639" width="70" height="40" as="geometry" />
        </mxCell>
        <mxCell id="iRURqrjIJQSKfv4a0Viq-33" value="" style="endArrow=none;html=1;rounded=0;entryX=0.422;entryY=0.975;entryDx=0;entryDy=0;entryPerimeter=0;" edge="1" parent="1" target="CKS4pDuvZnmvhNHZPCm1-27">
          <mxGeometry width="50" height="50" relative="1" as="geometry">
            <mxPoint x="-802" y="980" as="sourcePoint" />
            <mxPoint x="-802.5" y="500" as="targetPoint" />
            <Array as="points">
              <mxPoint x="-802" y="510" />
            </Array>
          </mxGeometry>
        </mxCell>
        <mxCell id="iRURqrjIJQSKfv4a0Viq-34" value="" style="endArrow=none;html=1;rounded=0;entryX=0;entryY=0.5;entryDx=0;entryDy=0;" edge="1" parent="1" target="CKS4pDuvZnmvhNHZPCm1-68">
          <mxGeometry width="50" height="50" relative="1" as="geometry">
            <mxPoint x="-800" y="980" as="sourcePoint" />
            <mxPoint x="-530" y="653" as="targetPoint" />
            <Array as="points">
              <mxPoint x="-800" y="1060" />
            </Array>
          </mxGeometry>
        </mxCell>
        <mxCell id="iRURqrjIJQSKfv4a0Viq-35" value="" style="endArrow=none;html=1;rounded=0;exitX=0;exitY=0.5;exitDx=0;exitDy=0;" edge="1" parent="1" source="iRURqrjIJQSKfv4a0Viq-32">
          <mxGeometry width="50" height="50" relative="1" as="geometry">
            <mxPoint x="-580" y="699" as="sourcePoint" />
            <mxPoint x="-800" y="659" as="targetPoint" />
          </mxGeometry>
        </mxCell>
        <mxCell id="iRURqrjIJQSKfv4a0Viq-36" value="" style="endArrow=none;html=1;rounded=0;exitX=0;exitY=0.5;exitDx=0;exitDy=0;" edge="1" parent="1" source="iRURqrjIJQSKfv4a0Viq-31">
          <mxGeometry width="50" height="50" relative="1" as="geometry">
            <mxPoint x="-747" y="669" as="sourcePoint" />
            <mxPoint x="-800" y="604" as="targetPoint" />
          </mxGeometry>
        </mxCell>
        <mxCell id="iRURqrjIJQSKfv4a0Viq-39" value="&lt;u&gt;ID_Conv&lt;/u&gt;" style="ellipse;whiteSpace=wrap;html=1;align=center;" vertex="1" parent="1">
          <mxGeometry x="-763" y="520" width="86" height="50" as="geometry" />
        </mxCell>
        <mxCell id="iRURqrjIJQSKfv4a0Viq-41" value="" style="endArrow=none;html=1;rounded=0;exitX=0;exitY=0.5;exitDx=0;exitDy=0;" edge="1" parent="1" source="iRURqrjIJQSKfv4a0Viq-39">
          <mxGeometry width="50" height="50" relative="1" as="geometry">
            <mxPoint x="-580" y="800" as="sourcePoint" />
            <mxPoint x="-800" y="545" as="targetPoint" />
          </mxGeometry>
        </mxCell>
      </root>
    </mxGraphModel>
  </diagram>
</mxfile>
